<mxfile host="Electron" agent="Mozilla/5.0 (Windows NT 10.0; Win64; x64) AppleWebKit/537.36 (KHTML, like Gecko) draw.io/24.7.5 Chrome/126.0.6478.183 Electron/31.3.0 Safari/537.36" version="24.7.5">
  <diagram name="Page-1" id="X46tgGFjMNI9DNuSMTlJ">
    <mxGraphModel dx="1036" dy="614" grid="1" gridSize="10" guides="1" tooltips="1" connect="1" arrows="1" fold="1" page="1" pageScale="1" pageWidth="850" pageHeight="1100" math="0" shadow="0">
      <root>
        <mxCell id="0" />
        <mxCell id="1" parent="0" />
        <mxCell id="nvjc513DS3XasQPSvSlc-3" style="edgeStyle=orthogonalEdgeStyle;rounded=0;orthogonalLoop=1;jettySize=auto;html=1;exitX=0.5;exitY=1;exitDx=0;exitDy=0;entryX=0.5;entryY=0;entryDx=0;entryDy=0;" parent="1" source="nvjc513DS3XasQPSvSlc-1" target="nvjc513DS3XasQPSvSlc-2" edge="1">
          <mxGeometry relative="1" as="geometry" />
        </mxCell>
        <mxCell id="nvjc513DS3XasQPSvSlc-1" value="&lt;font face=&quot;Lucida Console&quot; size=&quot;3&quot;&gt;Check few random keystring from&lt;/font&gt;&lt;div&gt;&lt;div style=&quot;color: rgb(204, 204, 204); background-color: rgb(31, 31, 31); font-family: Consolas, &amp;quot;Courier New&amp;quot;, monospace; font-size: 14px; line-height: 19px; white-space: pre;&quot;&gt;&lt;span style=&quot;color: #9cdcfe;&quot;&gt;g_p61850IfcInfo&lt;/span&gt;-&amp;gt;&lt;span style=&quot;color: #9cdcfe;&quot;&gt;p61850mappingtbl&lt;/span&gt;;&lt;/div&gt;&lt;/div&gt;&lt;div style=&quot;font-family: Consolas, &amp;quot;Courier New&amp;quot;, monospace; font-size: 14px; line-height: 19px; white-space: pre;&quot;&gt;&lt;span style=&quot;background-color: rgb(255, 255, 255);&quot;&gt;Initiated in main() function&lt;/span&gt;&lt;/div&gt;" style="rounded=1;whiteSpace=wrap;html=1;" parent="1" vertex="1">
          <mxGeometry x="87" y="110" width="310" height="120" as="geometry" />
        </mxCell>
        <mxCell id="nvjc513DS3XasQPSvSlc-5" style="edgeStyle=orthogonalEdgeStyle;rounded=0;orthogonalLoop=1;jettySize=auto;html=1;exitX=0.5;exitY=1;exitDx=0;exitDy=0;entryX=0.5;entryY=0;entryDx=0;entryDy=0;" parent="1" source="nvjc513DS3XasQPSvSlc-2" target="nvjc513DS3XasQPSvSlc-4" edge="1">
          <mxGeometry relative="1" as="geometry" />
        </mxCell>
        <mxCell id="nvjc513DS3XasQPSvSlc-2" value="&lt;font size=&quot;3&quot; face=&quot;Lucida Console&quot;&gt;check *GLU/* or *MLU/* in&lt;/font&gt;&lt;div&gt;&lt;div style=&quot;color: rgb(204, 204, 204); background-color: rgb(31, 31, 31); font-family: Consolas, &amp;quot;Courier New&amp;quot;, monospace; font-size: 14px; line-height: 19px; white-space: pre;&quot;&gt;&lt;span style=&quot;color: #9cdcfe;&quot;&gt;g_p61850MappingTbl&lt;/span&gt;[&lt;span style=&quot;color: #b5cea8;&quot;&gt;5&lt;/span&gt;].&lt;span style=&quot;color: #9cdcfe;&quot;&gt;ps8leafname&lt;/span&gt;&lt;/div&gt;&lt;/div&gt;" style="rounded=1;whiteSpace=wrap;html=1;" parent="1" vertex="1">
          <mxGeometry x="87" y="250" width="310" height="120" as="geometry" />
        </mxCell>
        <mxCell id="nvjc513DS3XasQPSvSlc-7" style="edgeStyle=orthogonalEdgeStyle;rounded=0;orthogonalLoop=1;jettySize=auto;html=1;exitX=0.5;exitY=1;exitDx=0;exitDy=0;entryX=0.5;entryY=0;entryDx=0;entryDy=0;" parent="1" source="nvjc513DS3XasQPSvSlc-4" target="nvjc513DS3XasQPSvSlc-6" edge="1">
          <mxGeometry relative="1" as="geometry" />
        </mxCell>
        <mxCell id="nvjc513DS3XasQPSvSlc-4" value="&lt;font size=&quot;3&quot; face=&quot;Lucida Console&quot;&gt;Set Global Variable&lt;/font&gt;&lt;div&gt;&lt;font size=&quot;3&quot; face=&quot;Lucida Console&quot;&gt;LU = GLU&lt;/font&gt;&lt;/div&gt;&lt;div&gt;&lt;font size=&quot;3&quot; face=&quot;Lucida Console&quot;&gt;or&lt;/font&gt;&lt;/div&gt;&lt;div&gt;&lt;font size=&quot;3&quot; face=&quot;Lucida Console&quot;&gt;LU = MLU&lt;/font&gt;&lt;/div&gt;" style="rounded=1;whiteSpace=wrap;html=1;" parent="1" vertex="1">
          <mxGeometry x="87" y="390" width="310" height="120" as="geometry" />
        </mxCell>
        <mxCell id="lguN7BV1eshh2DWQ_dps-2" style="edgeStyle=orthogonalEdgeStyle;rounded=0;orthogonalLoop=1;jettySize=auto;html=1;exitX=1;exitY=0.5;exitDx=0;exitDy=0;entryX=0;entryY=0.5;entryDx=0;entryDy=0;" edge="1" parent="1" source="nvjc513DS3XasQPSvSlc-6" target="lguN7BV1eshh2DWQ_dps-1">
          <mxGeometry relative="1" as="geometry" />
        </mxCell>
        <mxCell id="nvjc513DS3XasQPSvSlc-6" value="&lt;font size=&quot;3&quot; face=&quot;Lucida Console&quot;&gt;Set Global Variable&lt;/font&gt;&lt;div&gt;&lt;font size=&quot;3&quot; face=&quot;Lucida Console&quot;&gt;LU = GLU&lt;/font&gt;&lt;/div&gt;&lt;div&gt;&lt;font size=&quot;3&quot; face=&quot;Lucida Console&quot;&gt;or&lt;/font&gt;&lt;/div&gt;&lt;div&gt;&lt;font size=&quot;3&quot; face=&quot;Lucida Console&quot;&gt;LU = MLU&lt;/font&gt;&lt;/div&gt;" style="rounded=1;whiteSpace=wrap;html=1;" parent="1" vertex="1">
          <mxGeometry x="87" y="530" width="310" height="120" as="geometry" />
        </mxCell>
        <mxCell id="lguN7BV1eshh2DWQ_dps-1" value="&lt;font style=&quot;font-size: 15px;&quot; face=&quot;Lucida Console&quot;&gt;Collect all the leaf list to the associated class arrays.&lt;/font&gt;" style="rounded=1;whiteSpace=wrap;html=1;" vertex="1" parent="1">
          <mxGeometry x="440" y="110" width="310" height="120" as="geometry" />
        </mxCell>
      </root>
    </mxGraphModel>
  </diagram>
</mxfile>
